<svg width="99" height="41" viewBox="0 0 99 41" fill="none" xmlns="http://www.w3.org/2000/svg">
<g id="Frame 971">
<g id="Group 481379">
<path id="Vector" d="M52.6162 0.225624L52.6914 4.27704H52.1427C51.391 1.8492 49.9929 0.631517 48.0311 0.631517C47.5683 0.595793 47.103 0.654675 46.6636 0.804576C46.2242 0.954477 45.82 1.19226 45.4755 1.50343C45.207 1.73868 44.9887 2.02569 44.8337 2.34729C44.6787 2.66888 44.5902 3.01845 44.5735 3.37505C44.5763 3.66627 44.6455 3.953 44.7758 4.21349C44.906 4.47397 45.0939 4.70135 45.3252 4.87836C46.1527 5.44644 47.1083 5.80027 48.1063 5.90812C49.1415 6.06172 50.1522 6.34978 51.1129 6.76501C51.848 7.12918 52.4597 7.70168 52.8718 8.41113C53.3697 9.20324 53.6306 10.1213 53.6234 11.0569C53.6424 11.7629 53.5191 12.4655 53.2608 13.1228C53.0026 13.7801 52.6146 14.3787 52.1201 14.8829C51.6397 15.3757 51.0625 15.7638 50.4247 16.0225C49.7869 16.2812 49.1025 16.4051 48.4145 16.3862C47.083 16.3514 45.8007 15.8755 44.7689 15.0332L43.6715 16.0254H43.2656V11.6508H43.7692C44.1118 12.8415 44.7748 13.9154 45.6859 14.7551C46.434 15.4139 47.3951 15.7797 48.3919 15.7849C49.368 15.7818 50.3132 15.4419 51.0678 14.8227C51.447 14.542 51.7549 14.1759 51.9664 13.7542C52.1779 13.3324 52.2872 12.8667 52.2855 12.3949C52.2939 12.0082 52.2229 11.6239 52.0768 11.2657C51.9307 10.9076 51.7126 10.5833 51.4361 10.3128C50.6647 9.65382 49.7098 9.24719 48.7001 9.14775C47.7055 9.00597 46.7299 8.75386 45.7912 8.3961C45.0781 8.07518 44.4745 7.5526 44.0549 6.89279C43.5685 6.21009 43.3059 5.39336 43.3032 4.55515C43.3205 3.3863 43.7829 2.26804 44.5961 1.42827C45.0295 0.962203 45.5594 0.59632 46.1487 0.356149C46.7381 0.115978 47.3728 0.00730427 48.0086 0.0377104C49.2251 0.04421 50.4067 0.445106 51.376 1.18022C51.6724 0.901004 51.9257 0.579292 52.1276 0.225624H52.6162Z" fill="white"/>
<path id="Vector_2" d="M58.4778 15.4315V0.992244H55.9297V0.398438H63.822V0.992244H61.2514V15.4315H63.822V16.0253H55.9297V15.4315H58.4778Z" fill="white"/>
<path id="Vector_3" d="M71.361 0.992244V15.4315H74.8712C75.4069 15.4463 75.9424 15.3933 76.4647 15.2737C76.9105 15.1349 77.3088 14.8746 77.6148 14.522C77.9983 14.1236 78.2951 13.6502 78.4867 13.1314C78.7522 12.3937 78.9731 11.6407 79.1481 10.8765H79.6743L79.2459 15.9802H66.1445V15.3864H68.6024V0.992244H66.1445V0.398438H73.9617V0.992244H71.361Z" fill="white"/>
<path id="Vector_4" d="M84.5754 15.4315V0.992244H82.125V0.398438H89.8069V0.992244H87.349V15.4315H89.8069V16.0253H82.125V15.4315H84.5754ZM91.4681 0.398438H97.361V0.992244H94.9783L89.8069 6.30643L97.3234 15.4315H98.8267V16.0253H91.2125V15.4315H93.9034L87.6121 7.71954L94.1289 0.992244H91.4681V0.398438Z" fill="white"/>
<path id="Vector_5" d="M44.6854 27.6233V19.1372H43.2422V18.7914H48.2783C48.8223 18.7763 49.3658 18.8344 49.8943 18.9643C50.323 19.079 50.7045 19.3263 50.9842 19.6708C51.2855 20.0102 51.449 20.4498 51.4427 20.9036C51.4507 21.1752 51.3942 21.4448 51.2779 21.6904C51.1617 21.9361 50.9889 22.1506 50.7738 22.3167C50.0984 22.7648 49.3248 23.0433 48.5188 23.1284V23.166C49.1992 23.2968 49.8339 23.6025 50.3603 24.053C50.635 24.3471 50.844 24.6962 50.9736 25.0772C51.1032 25.4581 51.1503 25.8623 51.112 26.2628C51.0708 26.6536 51.1439 27.0479 51.3225 27.3978C51.3953 27.4786 51.4847 27.5426 51.5846 27.5854C51.6845 27.6282 51.7926 27.6489 51.9012 27.6459C52.0972 27.6404 52.2917 27.6101 52.48 27.5557V27.8864C52.1108 28.019 51.7223 28.0901 51.33 28.0969C51.0331 28.1281 50.7331 28.0869 50.4557 27.977C50.1782 27.867 49.9314 27.6915 49.7365 27.4655C49.449 27.118 49.2874 26.6836 49.278 26.2328V25.0677C49.2703 24.638 49.137 24.22 48.8946 23.8651C48.6315 23.4742 48.0453 23.2713 47.1358 23.2713H46.3165V27.6384H47.7596V27.9841H43.2497V27.6384L44.6854 27.6233ZM46.3165 19.1372V22.9405H47.5492C47.9552 22.9512 48.3612 22.9159 48.7593 22.8353C48.9034 22.7943 49.0374 22.7237 49.1526 22.6279C49.2678 22.5321 49.3617 22.4133 49.4283 22.2791C49.6228 21.8294 49.7078 21.3399 49.6763 20.8509C49.7061 20.4445 49.6201 20.0379 49.4283 19.6784C49.2894 19.4535 49.0683 19.2917 48.8119 19.2274C48.5034 19.1604 48.188 19.1301 47.8724 19.1372H46.3165Z" fill="white"/>
<path id="Vector_6" d="M57.6508 28.1794C57.0679 28.1765 56.4934 28.0394 55.972 27.7787C55.4506 27.518 54.9963 27.1407 54.6442 26.6761C53.8513 25.8035 53.3979 24.6753 53.3664 23.4966C53.3389 22.213 53.8043 20.9676 54.6667 20.0165C55.0339 19.5736 55.4929 19.2157 56.0121 18.9679C56.5313 18.72 57.0981 18.5879 57.6734 18.5808C58.2357 18.5946 58.788 18.7325 59.2909 18.9845C59.7938 19.2366 60.2347 19.5967 60.5823 20.039C61.4141 20.9559 61.875 22.1496 61.875 23.3876C61.875 24.6257 61.4141 25.8194 60.5823 26.7363C60.2277 27.1752 59.7818 27.5317 59.2756 27.7809C58.7693 28.0301 58.2149 28.1661 57.6508 28.1794ZM57.6508 18.9266C57.1769 18.9178 56.7094 19.0373 56.2978 19.2723C56.0872 19.4064 55.9065 19.5823 55.7668 19.7892C55.6272 19.9961 55.5316 20.2295 55.486 20.475C55.3054 21.4664 55.2323 22.4745 55.2681 23.4816C55.2559 24.2651 55.296 25.0486 55.3883 25.8268C55.4491 26.3625 55.669 26.8678 56.0197 27.2774C56.2241 27.484 56.4715 27.643 56.7444 27.743C57.0172 27.843 57.3087 27.8817 57.5982 27.8562C58.059 27.8481 58.5107 27.7267 58.9136 27.5029C59.1535 27.3571 59.3563 27.1577 59.5063 26.9204C59.6563 26.683 59.7492 26.4142 59.778 26.1349C59.939 25.0932 60.0069 24.0393 59.9809 22.9855C60.035 22.0824 59.9591 21.1761 59.7554 20.2946C59.6294 19.8553 59.3457 19.4779 58.9587 19.2347C58.5685 19.0183 58.1269 18.9118 57.6809 18.9266H57.6508Z" fill="white"/>
<path id="Vector_7" d="M71.0021 19.137H69.4988V18.7913H72.7761V19.137H71.3404V24.6917C71.3636 25.2911 71.3029 25.8907 71.16 26.4732C71.0389 26.8519 70.8088 27.1866 70.4985 27.4353C70.1599 27.7049 69.768 27.8996 69.3485 28.0065C68.899 28.1213 68.4369 28.1794 67.973 28.1794C67.2062 28.2361 66.4393 28.0717 65.7631 27.7059C65.3379 27.4461 65.0305 27.0309 64.9062 26.5483C64.7876 25.9369 64.7347 25.3145 64.7484 24.6917V19.137H63.418V18.7913H67.8076V19.137H66.3644V24.5339C66.3523 25.1268 66.385 25.7198 66.4622 26.3078C66.5233 26.7135 66.7192 27.0869 67.0184 27.3676C67.4228 27.6865 67.9334 27.8396 68.4465 27.7961C68.9424 27.8035 69.4326 27.69 69.8747 27.4653C70.2615 27.2876 70.573 26.9787 70.7541 26.5934C70.9615 25.9355 71.0456 25.2449 71.0021 24.5564V19.137Z" fill="white"/>
<path id="Vector_8" d="M73.8876 18.7913H81.7048L81.9453 21.9106H81.5996C81.4928 21.1294 81.2017 20.3848 80.7502 19.7383C80.5757 19.5415 80.36 19.3855 80.1183 19.2816C79.8766 19.1777 79.615 19.1283 79.3521 19.137H78.6005V27.6232H80.2391V27.9689H75.3383V27.6232H76.9769V19.137H76.2253C75.9634 19.1278 75.7027 19.177 75.4622 19.281C75.2217 19.385 75.0074 19.5412 74.8347 19.7383C74.3771 20.3822 74.0831 21.1278 73.9778 21.9106H73.6621L73.8876 18.7913Z" fill="white"/>
<path id="Vector_9" d="M86.1622 19.137V23.0757H86.9965C87.2501 23.082 87.5032 23.0516 87.7481 22.9855C87.9824 22.9075 88.1784 22.7436 88.2969 22.527C88.4898 22.1642 88.5856 21.7576 88.575 21.3469H88.9282V25.2404H88.575C88.607 24.7169 88.4554 24.1986 88.1465 23.7747C87.8275 23.5157 87.4212 23.3892 87.0115 23.4214H86.1772V27.6232H88.0488C88.442 27.666 88.8399 27.6289 89.2184 27.5139C89.5969 27.3989 89.9482 27.2085 90.2511 26.9542C90.718 26.3672 90.9818 25.6445 91.0028 24.8947H91.3486L91.2584 27.9689H83.0879V27.6232H84.5461V19.137H83.0879V18.7913H90.8901L91.0479 21.2417H90.6946C90.6374 20.6347 90.3718 20.0664 89.943 19.6331C89.4059 19.2517 88.7498 19.0757 88.0939 19.137H86.1622Z" fill="white"/>
<path id="Vector_10" d="M98.4204 18.6863L98.4655 21.0464H98.1423C97.6863 19.6183 96.882 18.9042 95.7295 18.9042C95.4557 18.8861 95.1812 18.9242 94.9227 19.0159C94.6642 19.1077 94.4272 19.2513 94.2261 19.4379C94.0654 19.5734 93.9349 19.741 93.8429 19.93C93.751 20.1191 93.6998 20.3253 93.6925 20.5353C93.6939 20.7083 93.7345 20.8786 93.8113 21.0336C93.8882 21.1885 93.9991 21.324 94.1359 21.4298C94.6174 21.7488 95.1697 21.945 95.7445 22.001C96.3574 22.0877 96.9564 22.2545 97.5259 22.4971C97.9627 22.7066 98.3248 23.0451 98.5632 23.4668C98.8463 23.9331 98.9922 24.4697 98.9841 25.0152C98.9973 25.4309 98.9262 25.8451 98.775 26.2326C98.6239 26.6201 98.3959 26.9731 98.1047 27.2701C97.8224 27.5612 97.4831 27.7908 97.1081 27.9447C96.733 28.0986 96.3302 28.1735 95.9249 28.1646C95.1559 28.1484 94.4126 27.8848 93.8052 27.413L93.1663 27.9842H92.9258V25.3985H93.2039C93.4045 26.0995 93.7946 26.7316 94.3314 27.225C94.7718 27.6135 95.3377 27.8297 95.9249 27.8339C96.4978 27.8325 97.0527 27.6333 97.4958 27.2701C97.7191 27.1053 97.9002 26.89 98.0243 26.6418C98.1484 26.3936 98.212 26.1195 98.2099 25.842C98.2155 25.6147 98.1743 25.3887 98.089 25.1779C98.0036 24.9672 97.876 24.7762 97.7138 24.6168C97.2572 24.2345 96.6974 23.9965 96.1053 23.9328C95.5225 23.8491 94.9505 23.703 94.399 23.4968C93.9688 23.2965 93.6042 22.9784 93.3474 22.5792C93.0907 22.1801 92.9523 21.7164 92.9483 21.2419C92.9495 20.5469 93.2187 19.8792 93.7 19.3778C93.9553 19.1047 94.2672 18.8905 94.6138 18.7503C94.9604 18.6101 95.3335 18.5472 95.7069 18.566C96.4212 18.5671 97.1156 18.802 97.6838 19.235C97.8569 19.0704 98.004 18.8802 98.1197 18.6712L98.4204 18.6863Z" fill="white"/>
<path id="Vector_11" d="M44.821 39.988V30.4871H43.1974V30.0662H51.864L51.9918 33.1705H51.6535C51.5901 32.8134 51.4997 32.4616 51.383 32.1182C51.2792 31.6193 51.0152 31.1679 50.6313 30.8328C50.0999 30.538 49.4931 30.4072 48.8875 30.457H46.6024V34.9143H47.0234C47.3853 34.9341 47.7483 34.914 48.1057 34.8542C48.3908 34.7733 48.6349 34.5882 48.7897 34.3356C49.0121 33.9298 49.1309 33.4753 49.1355 33.0126H49.5264V37.3647H49.1355C49.141 36.8771 49.0463 36.3936 48.8574 35.9441C48.7936 35.815 48.704 35.7003 48.5941 35.6072C48.4842 35.5141 48.3564 35.4446 48.2185 35.4029C47.8346 35.3312 47.4434 35.306 47.0534 35.3277H46.6024V39.988H48.4139V40.3788H43.1523V39.988H44.821Z" fill="white"/>
<path id="Vector_12" d="M58.036 40.5894C57.381 40.5908 56.7345 40.4402 56.1476 40.1493C55.5606 39.8585 55.0492 39.4353 54.6536 38.9132C53.7732 37.9306 53.2791 36.662 53.263 35.3428C53.2318 33.9037 53.7537 32.5075 54.7213 31.4417C55.135 30.9423 55.6526 30.539 56.2381 30.26C56.8235 29.9809 57.4627 29.8327 58.1112 29.8257C58.743 29.841 59.3635 29.9967 59.9277 30.2814C60.4919 30.5661 60.9857 30.9727 61.3734 31.4718C62.3088 32.5 62.8272 33.8401 62.8272 35.2301C62.8272 36.6201 62.3088 37.9602 61.3734 38.9883C60.9683 39.4833 60.4594 39.8833 59.8827 40.1599C59.306 40.4366 58.6756 40.5832 58.036 40.5894ZM58.036 30.2165C57.5094 30.2129 56.991 30.3477 56.5327 30.6074C56.2933 30.7603 56.0887 30.9617 55.932 31.1986C55.7753 31.4356 55.6701 31.7028 55.6232 31.9829C55.4304 33.0868 55.3549 34.208 55.3977 35.3278C55.3837 36.207 55.4315 37.0861 55.5406 37.9586C55.6056 38.5576 55.8492 39.1232 56.2396 39.5821C56.4701 39.8107 56.7473 39.9868 57.0522 40.0983C57.357 40.2099 57.6824 40.2543 58.006 40.2286C58.5314 40.2224 59.0474 40.0883 59.5093 39.8377C59.7714 39.6745 59.9938 39.4549 60.1603 39.1948C60.3267 38.9347 60.433 38.6408 60.4714 38.3344C60.6504 37.1683 60.7259 35.9886 60.6969 34.8091C60.7456 33.8113 60.652 32.8116 60.4188 31.8401C60.2744 31.3489 59.9566 30.9269 59.5243 30.6525C59.0845 30.3864 58.5801 30.246 58.0661 30.2466L58.036 30.2165Z" fill="white"/>
<path id="Vector_13" d="M66.2511 39.9879V30.487H64.6426V30.0661H70.2725C70.8847 30.053 71.496 30.1187 72.0915 30.2615C72.5693 30.392 72.9948 30.6678 73.3091 31.0507C73.6465 31.4321 73.8311 31.9246 73.8278 32.4338C73.8354 32.7375 73.7713 33.0387 73.6407 33.3129C73.5101 33.5872 73.3167 33.8268 73.0761 34.0123C72.3131 34.5188 71.4389 34.8334 70.528 34.9293V34.9669C71.3068 35.0977 72.0363 35.4351 72.6402 35.944C72.9449 36.2743 73.1762 36.6655 73.3187 37.0918C73.4613 37.5181 73.5118 37.9697 73.467 38.4169C73.4177 38.8565 73.4987 39.3009 73.7 39.6948C73.7789 39.788 73.8783 39.8616 73.9905 39.9098C74.1027 39.9581 74.2245 39.9797 74.3464 39.9729C74.5655 39.9652 74.7827 39.9298 74.9928 39.8676V40.2435C74.5772 40.3892 74.1404 40.4654 73.7 40.469C73.3731 40.5136 73.0403 40.4795 72.7291 40.3697C72.418 40.2599 72.1376 40.0775 71.9111 39.8376C71.5852 39.4358 71.4074 38.9342 71.4075 38.4169V37.1091C71.3989 36.6284 71.25 36.1607 70.979 35.7636C70.6859 35.3276 70.0319 35.1022 69.0097 35.1022H68.0776V39.9879H69.6937V40.3788H64.6426V39.9879H66.2511ZM68.0776 30.487V34.7414H69.4532C69.9098 34.7558 70.3666 34.7154 70.8137 34.6211C70.9753 34.5772 71.1259 34.4996 71.2554 34.3933C71.385 34.2871 71.4906 34.1547 71.5653 34.0047C71.7873 33.5016 71.8852 32.9526 71.8509 32.4037C71.8839 31.9493 71.7847 31.4951 71.5653 31.0958C71.4108 30.8414 71.1624 30.6578 70.8738 30.5847C70.5282 30.5102 70.1749 30.4774 69.8215 30.487H68.0776Z" fill="white"/>
<path id="Vector_14" d="M84.0428 30.4871H82.3591V30.0662H86.0347V30.457H84.4186V36.6732C84.4448 37.3459 84.3765 38.0189 84.2157 38.6726C84.081 39.0993 83.8186 39.4745 83.464 39.7475C83.0861 40.0497 82.6478 40.2676 82.1787 40.3864C81.6885 40.5189 81.1832 40.5871 80.6754 40.5893C79.8171 40.651 78.959 40.4658 78.2025 40.0556C77.7252 39.7634 77.3803 39.2971 77.2403 38.7553C77.1044 38.0699 77.0439 37.3717 77.0599 36.6732V30.4871H75.5566V30.0662H80.4274V30.457H78.8113V36.4703C78.8001 37.1261 78.8378 37.7818 78.9241 38.4321C78.9902 38.8876 79.2104 39.3067 79.5479 39.6197C80.0014 39.9766 80.5743 40.146 81.1489 40.0932C81.7014 40.1029 82.248 39.9791 82.7425 39.7324C83.1749 39.5319 83.5233 39.1862 83.7271 38.7553C83.9606 38.0277 84.0575 37.2632 84.0127 36.5003L84.0428 30.4871Z" fill="white"/>
<path id="Vector_15" d="M87.2676 30.0662H90.9507L93.153 37.3347L95.4005 30.0662H99.0009V30.457H97.4976V39.988H99.0009V40.3788H94.1602V39.988H95.7312V30.3142L92.672 40.3788H92.3187L89.2595 30.3142V39.988H90.8304V40.3788H87.2676V39.988H88.8085V30.4871H87.2676V30.0662Z" fill="white"/>
<path id="Vector_16" d="M12.2745 39.6497C12.8382 39.4994 13.402 39.3265 13.9732 39.1386L14.3942 39.0033L14.6121 38.9281L14.8226 38.8529L15.251 38.7026L15.672 38.5448L15.8824 38.4696L16.0929 38.3869L16.5213 38.2215L16.9423 38.0487L17.1527 37.9585L17.3632 37.8683L17.7841 37.6879L18.205 37.4924L18.4155 37.3947L18.6185 37.297L19.0319 37.1016C19.5806 36.8235 20.1218 36.5454 20.6554 36.2372C21.1891 35.929 21.7153 35.6283 22.2114 35.2901C24.2006 34.0397 25.9769 32.4791 27.4729 30.6674C28.8494 29.0065 29.8334 27.0564 30.3518 24.9624C30.8318 22.9261 30.7774 20.8004 30.1939 18.7913C29.5341 16.6084 28.4198 14.5898 26.9242 12.8683C26.5409 12.4022 26.1124 11.9588 25.6765 11.5153C25.2405 11.0718 24.8046 10.6283 24.2859 10.2074L23.9176 9.89924L23.7297 9.77146L23.5418 9.62113L23.1584 9.32047L22.7676 9.01981L22.5496 8.84693L22.3467 8.6966L21.9408 8.41097L21.5349 8.12534L21.3244 7.99004L21.1139 7.85474L20.693 7.57663L20.2946 7.31355L20.0767 7.17826L19.8587 7.05048L19.4227 6.76485C18.8364 6.4266 18.2426 6.09588 17.6413 5.79521C16.4311 5.17134 15.1909 4.61512 13.9432 4.11151C11.5609 3.17398 9.11737 2.40048 6.62958 1.79642C5.47204 1.51079 4.37462 1.27026 3.30728 1.04476L2.55562 0.90195L2.1798 0.834301L1.81148 0.774169L1.05983 0.653904L0.383343 0.586255L0 0.526123V40.5141H8.56885L8.97474 40.4389C10.0496 40.2285 11.1545 39.9654 12.2745 39.6497Z" fill="white"/>
<path id="Vector_17" d="M17.9278 3.94616C18.6795 4.25434 19.6115 4.63016 20.5361 5.05109C21.4606 5.47202 22.4227 5.95307 23.3397 6.44916C24.2568 6.94526 25.1287 7.47141 25.9104 7.95247C26.6921 8.43353 27.4137 8.95217 27.9624 9.38061L28.3758 9.68879L28.7291 9.97442L29.3004 10.4404L29.6536 10.7411L29.7814 10.8539L30.6759 10.5231L30.5406 10.4179C30.4579 10.3427 30.3151 10.245 30.1497 10.1172L29.5183 9.65873L29.1275 9.38061L28.684 9.07995C28.0601 8.65903 27.3085 8.17797 26.429 7.68939C25.5496 7.20082 24.6476 6.69721 23.6705 6.18609C22.6933 5.67496 21.7237 5.26155 20.7465 4.89324C19.7694 4.52493 18.8373 4.14159 18.0256 3.86348C17.2138 3.58536 16.5222 3.35987 16.0186 3.20954L15.4474 3.00659H15.252L15.4474 3.07424L15.9961 3.26215C16.4696 3.39745 17.1461 3.6455 17.9278 3.94616Z" fill="white"/>
<path id="Vector_18" d="M36.7178 25.1953V25.3156H39.2735V25.1803C39.2735 25.0976 39.2735 24.9623 39.2735 24.8045C39.2735 24.6466 39.2735 24.4362 39.2359 24.2107L39.1908 23.8423C39.1908 23.7146 39.1908 23.5868 39.1382 23.444L39.0705 23.008L38.9503 22.5495L38.8976 22.3015L38.8375 22.0534C38.7924 21.888 38.7623 21.7152 38.7097 21.5423C38.5113 20.8085 38.2601 20.0901 37.9581 19.3926C37.6388 18.6691 37.2748 17.9662 36.8682 17.2879C36.4773 16.6265 36.0489 16.0252 35.673 15.5065C35.4776 15.2509 35.2972 15.0179 35.1243 14.815L34.8913 14.5294C34.8237 14.4392 34.7485 14.3565 34.6884 14.2888L34.3952 13.9506L34.2825 13.8303L32.9746 14.1986L33.0648 14.3189L33.3204 14.6496L33.4933 14.8902L33.6962 15.1758C33.839 15.3787 33.9893 15.6042 34.1547 15.8598C34.5133 16.4234 34.842 17.0054 35.1394 17.6036C35.4643 18.2635 35.7455 18.9439 35.9812 19.6406C36.2117 20.3175 36.3901 21.0111 36.5149 21.7152C36.5525 21.8805 36.5675 22.0384 36.5976 22.2037V22.4368V22.6698L36.6427 23.1132C36.6427 23.2561 36.6427 23.3989 36.6427 23.5267C36.6499 23.6543 36.6499 23.7823 36.6427 23.91C36.6427 24.0303 36.6427 24.1505 36.6427 24.2558C36.6427 24.361 36.6427 24.6616 36.6427 24.8195C36.6427 24.9773 36.7178 25.1051 36.7178 25.1953Z" fill="white"/>
<path id="Vector_19" d="M32.1864 39.5821L32.5321 39.2664C32.6524 39.1536 32.7802 39.0409 32.9004 38.9131C34.0976 37.7728 35.1755 36.5135 36.1175 35.1548C36.9807 33.9203 37.69 32.585 38.2296 31.1786L38.38 30.7802L38.5002 30.4194C38.5754 30.1939 38.628 29.991 38.6806 29.8331C38.7333 29.6753 38.7633 29.54 38.7859 29.4498V29.3145L35.907 29.0364L35.8619 29.1566C35.8619 29.2393 35.7868 29.3596 35.7342 29.5099C35.6815 29.6602 35.6064 29.8406 35.5162 30.0511C35.426 30.2616 35.4185 30.2691 35.3734 30.3818C35.3283 30.4946 35.2606 30.6224 35.2005 30.7501C34.5694 32.0404 33.7953 33.2557 32.8929 34.3731C31.9108 35.5886 30.816 36.7085 29.6232 37.718C29.503 37.8307 29.3752 37.936 29.2549 38.0337L28.9167 38.3043L28.3529 38.7477L27.8418 39.1311L31.0664 40.5066L31.585 40.0782L32.1864 39.5821Z" fill="white"/>
<path id="Vector_20" d="M7.43328 0.240529C10.3858 0.55757 13.3155 1.05966 16.2051 1.74384C17.776 2.10463 19.3846 2.54811 21.0006 3.05923C21.8199 3.31479 22.6242 3.5929 23.4435 3.88605L24.0448 4.11154L24.353 4.22429L24.6537 4.34456L25.2625 4.57757L25.8713 4.83313L26.172 4.9534L26.4727 5.08118L27.074 5.34426L27.6753 5.62237L27.976 5.75767L28.2691 5.90048L28.8629 6.18611L29.4492 6.47925L29.7424 6.62958L30.0656 6.76488L30.6443 7.07306C31.396 7.49399 32.1477 7.92994 32.8993 8.38845C33.651 8.84696 34.365 9.32802 35.0641 9.83163C37.0673 11.2476 38.9031 12.8867 40.5361 14.7174V0H4.69727C5.56167 0.0601323 6.47868 0.135298 7.43328 0.240529Z" fill="white"/>
<path id="Vector_21" d="M15.9714 21.3093C16.3773 21.2202 16.757 21.038 17.0804 20.7772C17.4039 20.5163 17.6624 20.1838 17.8355 19.806C18.064 19.2605 18.1106 18.6559 17.9684 18.0819C17.8263 17.5078 17.5029 16.9948 17.0463 16.619C16.2942 16.0038 15.3636 15.6479 14.3929 15.6043C13.5661 15.5366 12.7468 15.6043 11.9275 15.6043C11.7847 15.6043 11.7621 15.6419 11.7621 15.7696V21.2868C11.7604 21.3777 11.7866 21.4669 11.8373 21.5423C12.1485 21.9677 12.328 22.4752 12.3534 23.0017C12.3788 23.5281 12.249 24.0505 11.9801 24.5039C11.8212 24.7548 11.745 25.0492 11.7621 25.3457C11.7621 25.3457 11.7621 25.3457 11.7621 25.3908C11.7621 25.4359 11.7621 25.5336 11.8974 25.5336C12.1778 25.5186 12.4589 25.5186 12.7393 25.5336C12.8595 25.5336 12.9046 25.5336 12.8971 25.3758V20.8659C13.3792 21.2521 13.9713 21.4758 14.5883 21.5048C14.634 21.5035 14.6788 21.5167 14.7166 21.5423C14.7543 21.5679 14.7831 21.6047 14.7988 21.6476C15.4152 22.9104 16.0466 24.1731 16.6629 25.4058C16.6751 25.4469 16.7014 25.4822 16.7372 25.5056C16.773 25.529 16.8159 25.539 16.8583 25.5336H17.6852C17.858 25.5336 17.858 25.5336 17.7754 25.3758C17.1515 24.0905 16.5276 22.8126 15.8962 21.5273C15.8511 21.377 15.8361 21.3469 15.9714 21.3093ZM13.7164 21.0989C13.4459 20.9847 13.1929 20.8328 12.9648 20.6479C12.9374 20.6303 12.9152 20.6057 12.9006 20.5766C12.8861 20.5475 12.8797 20.515 12.8821 20.4825V15.8223C12.8821 15.7321 12.8821 15.702 12.9948 15.702H13.5962C14.0468 15.6694 14.499 15.7388 14.9191 15.9049C15.2535 16.04 15.5561 16.2435 15.8072 16.5024C16.0583 16.7613 16.2525 17.0698 16.3773 17.4083C16.552 17.8182 16.642 18.2592 16.642 18.7049C16.642 19.1505 16.552 19.5915 16.3773 20.0015C16.2839 20.2545 16.1392 20.4854 15.9522 20.6798C15.7652 20.8742 15.54 21.0277 15.2908 21.1308C15.0415 21.2339 14.7737 21.2843 14.504 21.2788C14.2344 21.2733 13.9688 21.212 13.7239 21.0989H13.7164Z" fill="black"/>
<path id="Vector_22" d="M5.61523 22.5496C5.80315 22.9255 5.96099 23.3013 6.16394 23.6546C6.4594 24.2337 6.90616 24.722 7.45679 25.0677C7.96985 25.362 8.55754 25.5004 9.14801 25.4661C9.79057 25.467 10.4188 25.2759 10.952 24.9174C11.1749 24.7984 11.3621 24.6222 11.4942 24.4068C11.6263 24.1915 11.6986 23.9448 11.7036 23.6922C11.6947 23.5058 11.6481 23.3231 11.5668 23.1552C11.4854 22.9872 11.3709 22.8375 11.2301 22.715C10.8786 22.3791 10.4843 22.091 10.0575 21.8581C9.26075 21.3921 8.42642 20.9787 7.65973 20.445C7.08715 20.0873 6.61404 19.5909 6.28421 19.0018C6.00941 18.4625 5.95456 17.8375 6.13121 17.2585C6.30785 16.6795 6.70221 16.1916 7.23129 15.8975C7.94459 15.5081 8.76321 15.3554 9.56893 15.4616C10.2292 15.5322 10.8657 15.7478 11.433 16.0929C11.4933 16.121 11.5432 16.1673 11.5756 16.2253C11.608 16.2834 11.6212 16.3501 11.6134 16.4162C11.6134 16.8596 11.6134 17.3031 11.6134 17.7466C11.418 17.4384 11.2451 17.1227 11.0347 16.8371C10.771 16.428 10.4159 16.0858 9.99737 15.8374C9.53259 15.6051 9.00382 15.5337 8.49407 15.6344C7.84623 15.6933 7.24723 16.0036 6.8254 16.4988C6.68047 16.6522 6.57074 16.8353 6.50387 17.0355C6.43699 17.2356 6.41458 17.4479 6.4382 17.6576C6.46182 17.8673 6.53089 18.0693 6.6406 18.2495C6.75032 18.4298 6.89803 18.5839 7.07344 18.7012C7.51295 19.0356 7.98966 19.3181 8.49407 19.543C9.1916 19.8573 9.86934 20.2137 10.5235 20.6104C11.0464 20.9277 11.4827 21.3692 11.7938 21.8957C12.0543 22.368 12.1527 22.9127 12.0739 23.4462C11.9952 23.9798 11.7436 24.4728 11.3579 24.8497C10.9304 25.2136 10.4097 25.4505 9.85456 25.5337C8.83512 25.737 7.777 25.5941 6.84795 25.1278C6.40121 24.8912 6.01332 24.5573 5.71295 24.1507C5.67159 24.1113 5.6473 24.0574 5.6453 24.0003L5.61523 22.5496Z" fill="white"/>
<path id="Vector_23" d="M17.8749 22.7299V20.1517C17.86 20.0849 17.86 20.0156 17.8749 19.9487C18.0532 19.5742 18.1457 19.1647 18.1457 18.7499C18.1457 18.335 18.0532 17.9255 17.8749 17.551C17.8425 17.4854 17.8245 17.4136 17.8223 17.3405V15.6869C17.8223 15.5891 17.8223 15.5591 17.9425 15.5591H22.6629C22.8132 15.5591 22.7757 15.6418 22.7832 15.7244C22.7907 15.8071 22.7456 15.8447 22.6554 15.8372L19.1301 15.7094C18.9948 15.7094 18.9497 15.7094 18.9497 15.8823C18.9497 17.3505 18.9497 18.8162 18.9497 20.2795C18.9497 20.4072 18.9497 20.4373 19.1076 20.4298L21.6256 20.2945C21.776 20.2945 21.8436 20.3922 21.7835 20.5275C21.7233 20.6628 21.7008 20.5651 21.6482 20.5651H19.1527C19.0249 20.5651 19.0024 20.6027 19.0024 20.7154C19.0024 22.2187 19.0024 23.7671 19.0024 25.2855C19.0024 25.4208 19.0024 25.4734 18.8295 25.4659C18.5541 25.4508 18.2781 25.4508 18.0027 25.4659C17.8824 25.4659 17.8598 25.4659 17.8598 25.3231C17.8598 24.4511 17.8598 23.5792 17.8598 22.7073L17.8749 22.7299Z" fill="white"/>
</g>
</g>
</svg>
